# Blender v2.79 (sub 0) OBJ File: ''
# www.blender.org
mtllib toycar2.mtl
o Cylinder.003_Cylinder
v 1.897252 -1.884025 -1.016829
v 1.897252 -1.884025 -1.283417
v 1.727720 -1.867328 -1.016829
v 1.727720 -1.867328 -1.283417
v 1.564702 -1.817877 -1.016829
v 1.564702 -1.817877 -1.283417
v 1.414464 -1.737573 -1.016829
v 1.414464 -1.737573 -1.283417
v 1.282779 -1.629502 -1.016829
v 1.282779 -1.629502 -1.283417
v 1.174708 -1.497817 -1.016829
v 1.174708 -1.497817 -1.283417
v 1.094404 -1.347579 -1.016829
v 1.094404 -1.347579 -1.283417
v 1.044953 -1.184561 -1.016829
v 1.044953 -1.184561 -1.283417
v 1.028255 -1.015028 -1.016829
v 1.028255 -1.015028 -1.283417
v 1.044953 -0.845495 -1.016829
v 1.044953 -0.845495 -1.283417
v 1.094404 -0.682478 -1.016829
v 1.094404 -0.682478 -1.283417
v 1.174708 -0.532239 -1.016829
v 1.174708 -0.532239 -1.283417
v 1.282779 -0.400555 -1.016829
v 1.282779 -0.400555 -1.283417
v 1.414464 -0.292484 -1.016829
v 1.414464 -0.292484 -1.283417
v 1.564702 -0.212180 -1.016829
v 1.564702 -0.212180 -1.283417
v 1.727720 -0.162729 -1.016829
v 1.727720 -0.162729 -1.283417
v 1.897253 -0.146031 -1.016829
v 1.897253 -0.146031 -1.283417
v 2.066786 -0.162729 -1.016829
v 2.066786 -0.162729 -1.283417
v 2.229804 -0.212180 -1.016829
v 2.229804 -0.212180 -1.283417
v 2.380042 -0.292484 -1.016829
v 2.380042 -0.292484 -1.283417
v 2.511726 -0.400555 -1.016829
v 2.511726 -0.400555 -1.283417
v 2.619797 -0.532240 -1.016829
v 2.619797 -0.532240 -1.283417
v 2.700101 -0.682478 -1.016829
v 2.700101 -0.682478 -1.283417
v 2.749552 -0.845496 -1.016829
v 2.749552 -0.845496 -1.283417
v 2.766249 -1.015029 -1.016829
v 2.766249 -1.015029 -1.283417
v 2.749552 -1.184562 -1.016829
v 2.749552 -1.184562 -1.283417
v 2.700101 -1.347580 -1.016829
v 2.700101 -1.347580 -1.283417
v 2.619797 -1.497818 -1.016829
v 2.619797 -1.497818 -1.283417
v 2.511725 -1.629503 -1.016829
v 2.511725 -1.629503 -1.283417
v 2.380040 -1.737574 -1.016829
v 2.380040 -1.737574 -1.283417
v 2.229802 -1.817877 -1.016829
v 2.229802 -1.817877 -1.283417
v 2.066784 -1.867328 -1.016829
v 2.066784 -1.867328 -1.283417
vn -0.0980 -0.9952 0.0000
vn -0.2903 -0.9569 0.0000
vn -0.4714 -0.8819 0.0000
vn -0.6344 -0.7730 0.0000
vn -0.7730 -0.6344 0.0000
vn -0.8819 -0.4714 0.0000
vn -0.9569 -0.2903 0.0000
vn -0.9952 -0.0980 0.0000
vn -0.9952 0.0980 0.0000
vn -0.9569 0.2903 0.0000
vn -0.8819 0.4714 0.0000
vn -0.7730 0.6344 0.0000
vn -0.6344 0.7730 0.0000
vn -0.4714 0.8819 0.0000
vn -0.2903 0.9569 0.0000
vn -0.0980 0.9952 0.0000
vn 0.0980 0.9952 0.0000
vn 0.2903 0.9569 0.0000
vn 0.4714 0.8819 0.0000
vn 0.6344 0.7730 0.0000
vn 0.7730 0.6344 0.0000
vn 0.8819 0.4714 0.0000
vn 0.9569 0.2903 0.0000
vn 0.9952 0.0980 0.0000
vn 0.9952 -0.0980 0.0000
vn 0.9569 -0.2903 0.0000
vn 0.8819 -0.4714 0.0000
vn 0.7730 -0.6344 0.0000
vn 0.6344 -0.7730 0.0000
vn 0.4714 -0.8819 0.0000
vn -0.0000 0.0000 -1.0000
vn 0.2903 -0.9569 0.0000
vn 0.0980 -0.9952 0.0000
vn 0.0000 -0.0000 1.0000
usemtl None
s off
f 1//1 3//1 4//1 2//1
f 3//2 5//2 6//2 4//2
f 5//3 7//3 8//3 6//3
f 7//4 9//4 10//4 8//4
f 9//5 11//5 12//5 10//5
f 11//6 13//6 14//6 12//6
f 13//7 15//7 16//7 14//7
f 15//8 17//8 18//8 16//8
f 17//9 19//9 20//9 18//9
f 19//10 21//10 22//10 20//10
f 21//11 23//11 24//11 22//11
f 23//12 25//12 26//12 24//12
f 25//13 27//13 28//13 26//13
f 27//14 29//14 30//14 28//14
f 29//15 31//15 32//15 30//15
f 31//16 33//16 34//16 32//16
f 33//17 35//17 36//17 34//17
f 35//18 37//18 38//18 36//18
f 37//19 39//19 40//19 38//19
f 39//20 41//20 42//20 40//20
f 41//21 43//21 44//21 42//21
f 43//22 45//22 46//22 44//22
f 45//23 47//23 48//23 46//23
f 47//24 49//24 50//24 48//24
f 49//25 51//25 52//25 50//25
f 51//26 53//26 54//26 52//26
f 53//27 55//27 56//27 54//27
f 55//28 57//28 58//28 56//28
f 57//29 59//29 60//29 58//29
f 59//30 61//30 62//30 60//30
f 4//31 6//31 8//31 10//31 12//31 14//31 16//31 18//31 20//31 22//31 24//31 26//31 28//31 30//31 32//31 34//31 36//31 38//31 40//31 42//31 44//31 46//31 48//31 50//31 52//31 54//31 56//31 58//31 60//31 62//31 64//31 2//31
f 61//32 63//32 64//32 62//32
f 63//33 1//33 2//33 64//33
f 1//34 63//34 61//34 59//34 57//34 55//34 53//34 51//34 49//34 47//34 45//34 43//34 41//34 39//34 37//34 35//34 33//34 31//34 29//34 27//34 25//34 23//34 21//34 19//34 17//34 15//34 13//34 11//34 9//34 7//34 5//34 3//34
o Cylinder.002_Cylinder
v -1.898490 -1.968533 -1.010657
v -1.898490 -1.968533 -1.277245
v -2.068023 -1.951836 -1.010657
v -2.068023 -1.951836 -1.277245
v -2.231041 -1.902385 -1.010657
v -2.231041 -1.902385 -1.277245
v -2.381279 -1.822081 -1.010657
v -2.381279 -1.822081 -1.277245
v -2.512964 -1.714010 -1.010657
v -2.512964 -1.714010 -1.277245
v -2.621035 -1.582325 -1.010657
v -2.621035 -1.582325 -1.277245
v -2.701339 -1.432087 -1.010657
v -2.701339 -1.432087 -1.277245
v -2.750790 -1.269069 -1.010657
v -2.750790 -1.269069 -1.277245
v -2.767488 -1.099536 -1.010657
v -2.767488 -1.099536 -1.277245
v -2.750790 -0.930004 -1.010657
v -2.750790 -0.930004 -1.277245
v -2.701339 -0.766986 -1.010657
v -2.701339 -0.766986 -1.277245
v -2.621035 -0.616747 -1.010657
v -2.621035 -0.616747 -1.277245
v -2.512964 -0.485063 -1.010657
v -2.512964 -0.485063 -1.277245
v -2.381279 -0.376992 -1.010657
v -2.381279 -0.376992 -1.277245
v -2.231041 -0.296688 -1.010657
v -2.231041 -0.296688 -1.277245
v -2.068023 -0.247237 -1.010657
v -2.068023 -0.247237 -1.277245
v -1.898490 -0.230539 -1.010657
v -1.898490 -0.230539 -1.277245
v -1.728957 -0.247237 -1.010657
v -1.728957 -0.247237 -1.277245
v -1.565939 -0.296688 -1.010657
v -1.565939 -0.296688 -1.277245
v -1.415701 -0.376992 -1.010657
v -1.415701 -0.376992 -1.277245
v -1.284016 -0.485063 -1.010657
v -1.284016 -0.485063 -1.277245
v -1.175946 -0.616748 -1.010657
v -1.175946 -0.616748 -1.277245
v -1.095642 -0.766986 -1.010657
v -1.095642 -0.766986 -1.277245
v -1.046191 -0.930004 -1.010657
v -1.046191 -0.930004 -1.277245
v -1.029493 -1.099537 -1.010657
v -1.029493 -1.099537 -1.277245
v -1.046191 -1.269070 -1.010657
v -1.046191 -1.269070 -1.277245
v -1.095642 -1.432088 -1.010657
v -1.095642 -1.432088 -1.277245
v -1.175946 -1.582326 -1.010657
v -1.175946 -1.582326 -1.277245
v -1.284018 -1.714011 -1.010657
v -1.284018 -1.714011 -1.277245
v -1.415703 -1.822082 -1.010657
v -1.415703 -1.822082 -1.277245
v -1.565941 -1.902385 -1.010657
v -1.565941 -1.902385 -1.277245
v -1.728959 -1.951836 -1.010657
v -1.728959 -1.951836 -1.277245
vn -0.0980 -0.9952 0.0000
vn -0.2903 -0.9569 0.0000
vn -0.4714 -0.8819 0.0000
vn -0.6344 -0.7730 0.0000
vn -0.7730 -0.6344 0.0000
vn -0.8819 -0.4714 0.0000
vn -0.9569 -0.2903 0.0000
vn -0.9952 -0.0980 0.0000
vn -0.9952 0.0980 0.0000
vn -0.9569 0.2903 0.0000
vn -0.8819 0.4714 0.0000
vn -0.7730 0.6344 0.0000
vn -0.6344 0.7730 0.0000
vn -0.4714 0.8819 0.0000
vn -0.2903 0.9569 0.0000
vn -0.0980 0.9952 0.0000
vn 0.0980 0.9952 0.0000
vn 0.2903 0.9569 0.0000
vn 0.4714 0.8819 0.0000
vn 0.6344 0.7730 0.0000
vn 0.7730 0.6344 0.0000
vn 0.8819 0.4714 0.0000
vn 0.9569 0.2903 0.0000
vn 0.9952 0.0980 0.0000
vn 0.9952 -0.0980 0.0000
vn 0.9569 -0.2903 0.0000
vn 0.8819 -0.4714 0.0000
vn 0.7730 -0.6344 0.0000
vn 0.6344 -0.7730 0.0000
vn 0.4714 -0.8819 0.0000
vn -0.0000 0.0000 -1.0000
vn 0.2903 -0.9569 0.0000
vn 0.0980 -0.9952 0.0000
vn -0.0000 -0.0000 1.0000
usemtl None
s off
f 65//35 67//35 68//35 66//35
f 67//36 69//36 70//36 68//36
f 69//37 71//37 72//37 70//37
f 71//38 73//38 74//38 72//38
f 73//39 75//39 76//39 74//39
f 75//40 77//40 78//40 76//40
f 77//41 79//41 80//41 78//41
f 79//42 81//42 82//42 80//42
f 81//43 83//43 84//43 82//43
f 83//44 85//44 86//44 84//44
f 85//45 87//45 88//45 86//45
f 87//46 89//46 90//46 88//46
f 89//47 91//47 92//47 90//47
f 91//48 93//48 94//48 92//48
f 93//49 95//49 96//49 94//49
f 95//50 97//50 98//50 96//50
f 97//51 99//51 100//51 98//51
f 99//52 101//52 102//52 100//52
f 101//53 103//53 104//53 102//53
f 103//54 105//54 106//54 104//54
f 105//55 107//55 108//55 106//55
f 107//56 109//56 110//56 108//56
f 109//57 111//57 112//57 110//57
f 111//58 113//58 114//58 112//58
f 113//59 115//59 116//59 114//59
f 115//60 117//60 118//60 116//60
f 117//61 119//61 120//61 118//61
f 119//62 121//62 122//62 120//62
f 121//63 123//63 124//63 122//63
f 123//64 125//64 126//64 124//64
f 68//65 70//65 72//65 74//65 76//65 78//65 80//65 82//65 84//65 86//65 88//65 90//65 92//65 94//65 96//65 98//65 100//65 102//65 104//65 106//65 108//65 110//65 112//65 114//65 116//65 118//65 120//65 122//65 124//65 126//65 128//65 66//65
f 125//66 127//66 128//66 126//66
f 127//67 65//67 66//67 128//67
f 65//68 127//68 125//68 123//68 121//68 119//68 117//68 115//68 113//68 111//68 109//68 107//68 105//68 103//68 101//68 99//68 97//68 95//68 93//68 91//68 89//68 87//68 85//68 83//68 81//68 79//68 77//68 75//68 73//68 71//68 69//68 67//68
o Cylinder.001_Cylinder
v -1.898490 -1.884025 1.284245
v -1.898490 -1.884025 1.017657
v -2.068023 -1.867328 1.284245
v -2.068023 -1.867328 1.017657
v -2.231041 -1.817877 1.284245
v -2.231041 -1.817877 1.017657
v -2.381279 -1.737573 1.284245
v -2.381279 -1.737573 1.017657
v -2.512964 -1.629502 1.284245
v -2.512964 -1.629502 1.017657
v -2.621035 -1.497817 1.284245
v -2.621035 -1.497817 1.017657
v -2.701339 -1.347579 1.284245
v -2.701339 -1.347579 1.017657
v -2.750790 -1.184561 1.284245
v -2.750790 -1.184561 1.017657
v -2.767488 -1.015028 1.284245
v -2.767488 -1.015028 1.017657
v -2.750790 -0.845495 1.284245
v -2.750790 -0.845495 1.017657
v -2.701339 -0.682478 1.284245
v -2.701339 -0.682478 1.017657
v -2.621035 -0.532239 1.284245
v -2.621035 -0.532239 1.017657
v -2.512964 -0.400555 1.284245
v -2.512964 -0.400555 1.017657
v -2.381279 -0.292484 1.284245
v -2.381279 -0.292484 1.017657
v -2.231041 -0.212180 1.284245
v -2.231041 -0.212180 1.017657
v -2.068023 -0.162729 1.284245
v -2.068023 -0.162729 1.017657
v -1.898490 -0.146031 1.284245
v -1.898490 -0.146031 1.017657
v -1.728957 -0.162729 1.284245
v -1.728957 -0.162729 1.017657
v -1.565939 -0.212180 1.284245
v -1.565939 -0.212180 1.017657
v -1.415701 -0.292484 1.284245
v -1.415701 -0.292484 1.017657
v -1.284016 -0.400555 1.284245
v -1.284016 -0.400555 1.017657
v -1.175946 -0.532240 1.284245
v -1.175946 -0.532240 1.017657
v -1.095642 -0.682478 1.284245
v -1.095642 -0.682478 1.017657
v -1.046191 -0.845496 1.284245
v -1.046191 -0.845496 1.017657
v -1.029493 -1.015029 1.284245
v -1.029493 -1.015029 1.017657
v -1.046191 -1.184562 1.284245
v -1.046191 -1.184562 1.017657
v -1.095642 -1.347580 1.284245
v -1.095642 -1.347580 1.017657
v -1.175946 -1.497818 1.284245
v -1.175946 -1.497818 1.017657
v -1.284018 -1.629503 1.284245
v -1.284018 -1.629503 1.017657
v -1.415703 -1.737574 1.284245
v -1.415703 -1.737574 1.017657
v -1.565941 -1.817877 1.284245
v -1.565941 -1.817877 1.017657
v -1.728959 -1.867328 1.284245
v -1.728959 -1.867328 1.017657
vn -0.0980 -0.9952 0.0000
vn -0.2903 -0.9569 0.0000
vn -0.4714 -0.8819 0.0000
vn -0.6344 -0.7730 0.0000
vn -0.7730 -0.6344 0.0000
vn -0.8819 -0.4714 0.0000
vn -0.9569 -0.2903 0.0000
vn -0.9952 -0.0980 0.0000
vn -0.9952 0.0980 0.0000
vn -0.9569 0.2903 0.0000
vn -0.8819 0.4714 0.0000
vn -0.7730 0.6344 0.0000
vn -0.6344 0.7730 0.0000
vn -0.4714 0.8819 0.0000
vn -0.2903 0.9569 0.0000
vn -0.0980 0.9952 0.0000
vn 0.0980 0.9952 0.0000
vn 0.2903 0.9569 0.0000
vn 0.4714 0.8819 0.0000
vn 0.6344 0.7730 0.0000
vn 0.7730 0.6344 0.0000
vn 0.8819 0.4714 0.0000
vn 0.9569 0.2903 0.0000
vn 0.9952 0.0980 0.0000
vn 0.9952 -0.0980 0.0000
vn 0.9569 -0.2903 0.0000
vn 0.8819 -0.4714 0.0000
vn 0.7730 -0.6344 0.0000
vn 0.6344 -0.7730 0.0000
vn 0.4714 -0.8819 0.0000
vn -0.0000 0.0000 -1.0000
vn 0.2903 -0.9569 0.0000
vn 0.0980 -0.9952 0.0000
vn -0.0000 -0.0000 1.0000
usemtl None
s off
f 129//69 131//69 132//69 130//69
f 131//70 133//70 134//70 132//70
f 133//71 135//71 136//71 134//71
f 135//72 137//72 138//72 136//72
f 137//73 139//73 140//73 138//73
f 139//74 141//74 142//74 140//74
f 141//75 143//75 144//75 142//75
f 143//76 145//76 146//76 144//76
f 145//77 147//77 148//77 146//77
f 147//78 149//78 150//78 148//78
f 149//79 151//79 152//79 150//79
f 151//80 153//80 154//80 152//80
f 153//81 155//81 156//81 154//81
f 155//82 157//82 158//82 156//82
f 157//83 159//83 160//83 158//83
f 159//84 161//84 162//84 160//84
f 161//85 163//85 164//85 162//85
f 163//86 165//86 166//86 164//86
f 165//87 167//87 168//87 166//87
f 167//88 169//88 170//88 168//88
f 169//89 171//89 172//89 170//89
f 171//90 173//90 174//90 172//90
f 173//91 175//91 176//91 174//91
f 175//92 177//92 178//92 176//92
f 177//93 179//93 180//93 178//93
f 179//94 181//94 182//94 180//94
f 181//95 183//95 184//95 182//95
f 183//96 185//96 186//96 184//96
f 185//97 187//97 188//97 186//97
f 187//98 189//98 190//98 188//98
f 132//99 134//99 136//99 138//99 140//99 142//99 144//99 146//99 148//99 150//99 152//99 154//99 156//99 158//99 160//99 162//99 164//99 166//99 168//99 170//99 172//99 174//99 176//99 178//99 180//99 182//99 184//99 186//99 188//99 190//99 192//99 130//99
f 189//100 191//100 192//100 190//100
f 191//101 129//101 130//101 192//101
f 129//102 191//102 189//102 187//102 185//102 183//102 181//102 179//102 177//102 175//102 173//102 171//102 169//102 167//102 165//102 163//102 161//102 159//102 157//102 155//102 153//102 151//102 149//102 147//102 145//102 143//102 141//102 139//102 137//102 135//102 133//102 131//102
o Cylinder
v 1.897252 -1.884025 1.280718
v 1.897252 -1.884025 1.014129
v 1.727720 -1.867328 1.280718
v 1.727720 -1.867328 1.014129
v 1.564702 -1.817877 1.280718
v 1.564702 -1.817877 1.014129
v 1.414464 -1.737573 1.280718
v 1.414464 -1.737573 1.014129
v 1.282779 -1.629502 1.280718
v 1.282779 -1.629502 1.014129
v 1.174708 -1.497817 1.280718
v 1.174708 -1.497817 1.014129
v 1.094404 -1.347579 1.280718
v 1.094404 -1.347579 1.014129
v 1.044953 -1.184561 1.280718
v 1.044953 -1.184561 1.014129
v 1.028255 -1.015028 1.280718
v 1.028255 -1.015028 1.014129
v 1.044953 -0.845495 1.280718
v 1.044953 -0.845495 1.014129
v 1.094404 -0.682478 1.280718
v 1.094404 -0.682478 1.014129
v 1.174708 -0.532239 1.280718
v 1.174708 -0.532239 1.014129
v 1.282779 -0.400555 1.280718
v 1.282779 -0.400555 1.014129
v 1.414464 -0.292484 1.280718
v 1.414464 -0.292484 1.014129
v 1.564702 -0.212180 1.280718
v 1.564702 -0.212180 1.014129
v 1.727720 -0.162729 1.280718
v 1.727720 -0.162729 1.014129
v 1.897253 -0.146031 1.280718
v 1.897253 -0.146031 1.014129
v 2.066786 -0.162729 1.280718
v 2.066786 -0.162729 1.014129
v 2.229804 -0.212180 1.280718
v 2.229804 -0.212180 1.014129
v 2.380042 -0.292484 1.280718
v 2.380042 -0.292484 1.014129
v 2.511726 -0.400555 1.280718
v 2.511726 -0.400555 1.014129
v 2.619797 -0.532240 1.280718
v 2.619797 -0.532240 1.014129
v 2.700101 -0.682478 1.280718
v 2.700101 -0.682478 1.014129
v 2.749552 -0.845496 1.280718
v 2.749552 -0.845496 1.014129
v 2.766249 -1.015029 1.280718
v 2.766249 -1.015029 1.014129
v 2.749552 -1.184562 1.280718
v 2.749552 -1.184562 1.014129
v 2.700101 -1.347580 1.280718
v 2.700101 -1.347580 1.014129
v 2.619797 -1.497818 1.280718
v 2.619797 -1.497818 1.014129
v 2.511725 -1.629503 1.280718
v 2.511725 -1.629503 1.014129
v 2.380040 -1.737574 1.280718
v 2.380040 -1.737574 1.014129
v 2.229802 -1.817877 1.280718
v 2.229802 -1.817877 1.014129
v 2.066784 -1.867328 1.280718
v 2.066784 -1.867328 1.014129
vn -0.0980 -0.9952 0.0000
vn -0.2903 -0.9569 0.0000
vn -0.4714 -0.8819 0.0000
vn -0.6344 -0.7730 0.0000
vn -0.7730 -0.6344 0.0000
vn -0.8819 -0.4714 0.0000
vn -0.9569 -0.2903 0.0000
vn -0.9952 -0.0980 0.0000
vn -0.9952 0.0980 0.0000
vn -0.9569 0.2903 0.0000
vn -0.8819 0.4714 0.0000
vn -0.7730 0.6344 0.0000
vn -0.6344 0.7730 0.0000
vn -0.4714 0.8819 0.0000
vn -0.2903 0.9569 0.0000
vn -0.0980 0.9952 0.0000
vn 0.0980 0.9952 0.0000
vn 0.2903 0.9569 0.0000
vn 0.4714 0.8819 0.0000
vn 0.6344 0.7730 0.0000
vn 0.7730 0.6344 0.0000
vn 0.8819 0.4714 0.0000
vn 0.9569 0.2903 0.0000
vn 0.9952 0.0980 0.0000
vn 0.9952 -0.0980 0.0000
vn 0.9569 -0.2903 0.0000
vn 0.8819 -0.4714 0.0000
vn 0.7730 -0.6344 0.0000
vn 0.6344 -0.7730 0.0000
vn 0.4714 -0.8819 0.0000
vn 0.0000 0.0000 -1.0000
vn 0.2903 -0.9569 0.0000
vn 0.0980 -0.9952 0.0000
vn -0.0000 -0.0000 1.0000
usemtl None
s off
f 193//103 195//103 196//103 194//103
f 195//104 197//104 198//104 196//104
f 197//105 199//105 200//105 198//105
f 199//106 201//106 202//106 200//106
f 201//107 203//107 204//107 202//107
f 203//108 205//108 206//108 204//108
f 205//109 207//109 208//109 206//109
f 207//110 209//110 210//110 208//110
f 209//111 211//111 212//111 210//111
f 211//112 213//112 214//112 212//112
f 213//113 215//113 216//113 214//113
f 215//114 217//114 218//114 216//114
f 217//115 219//115 220//115 218//115
f 219//116 221//116 222//116 220//116
f 221//117 223//117 224//117 222//117
f 223//118 225//118 226//118 224//118
f 225//119 227//119 228//119 226//119
f 227//120 229//120 230//120 228//120
f 229//121 231//121 232//121 230//121
f 231//122 233//122 234//122 232//122
f 233//123 235//123 236//123 234//123
f 235//124 237//124 238//124 236//124
f 237//125 239//125 240//125 238//125
f 239//126 241//126 242//126 240//126
f 241//127 243//127 244//127 242//127
f 243//128 245//128 246//128 244//128
f 245//129 247//129 248//129 246//129
f 247//130 249//130 250//130 248//130
f 249//131 251//131 252//131 250//131
f 251//132 253//132 254//132 252//132
f 196//133 198//133 200//133 202//133 204//133 206//133 208//133 210//133 212//133 214//133 216//133 218//133 220//133 222//133 224//133 226//133 228//133 230//133 232//133 234//133 236//133 238//133 240//133 242//133 244//133 246//133 248//133 250//133 252//133 254//133 256//133 194//133
f 253//134 255//134 256//134 254//134
f 255//135 193//135 194//135 256//135
f 193//136 255//136 253//136 251//136 249//136 247//136 245//136 243//136 241//136 239//136 237//136 235//136 233//136 231//136 229//136 227//136 225//136 223//136 221//136 219//136 217//136 215//136 213//136 211//136 209//136 207//136 205//136 203//136 201//136 199//136 197//136 195//136
o Cube
v -2.851017 0.443325 -1.000000
v -2.851017 0.443325 1.000000
v 2.851017 0.358240 1.000000
v 2.851016 0.358240 -1.000000
v -2.851018 -1.273881 -0.999999
v -2.851015 -1.273881 1.000001
v 2.851017 -1.273881 1.000000
v 2.851016 -1.273881 -1.000000
v -2.851017 0.443325 0.000000
v -0.000001 1.273881 -1.000000
v 0.000000 1.273881 1.000000
v 2.851016 0.358240 -0.000000
v -0.000000 1.273881 -0.000000
v -2.851017 0.443325 0.500000
v 1.425508 0.358240 -1.000000
v 1.425508 0.358240 1.000000
v 2.851016 0.358240 -0.500000
v -2.851017 0.443325 -0.500000
v -1.425509 1.273881 -1.000000
v -1.425508 1.273881 1.000000
v 2.851017 0.358240 0.500000
v 1.425508 0.358240 -0.000000
v -1.425508 1.273881 -0.000000
v -0.000000 1.273881 -0.500000
v -0.000000 1.273881 0.500000
v -1.425508 1.273881 0.500000
v -1.425508 1.273881 -0.500000
v 1.425508 0.358240 -0.500000
v 1.425508 0.358240 0.500000
v -2.851017 0.443325 0.750000
v -2.851017 0.443325 -0.250000
v -2.851017 0.443325 0.250000
v -2.851017 0.443325 -0.750000
v -2.138263 0.443325 -1.000000
v -2.138262 0.443325 1.000000
v -2.138262 0.443325 0.000000
v -2.138262 0.443325 0.500000
v -1.425508 1.273881 0.250000
v -1.425508 1.273881 0.750000
v -2.138262 0.443325 -0.500000
v -1.425509 1.273881 -0.750000
v -1.425508 1.273881 -0.250000
v -2.138262 0.443325 -0.250000
v -2.138263 0.443325 -0.750000
v -2.138262 0.443325 0.750000
v -2.138262 0.443325 0.250000
vn 0.0000 1.0000 0.0000
vn 0.0000 -1.0000 -0.0000
vn -1.0000 -0.0000 0.0000
vn 0.0000 0.0000 1.0000
vn 1.0000 0.0000 -0.0000
vn -0.0000 -0.0000 -1.0000
vn -0.7589 0.6512 0.0000
vn 0.5404 0.8414 -0.0000
usemtl Material
s off
f 285//137 272//137 259//137 277//137
f 261//138 264//138 263//138 262//138
f 257//139 261//139 262//139 258//139 286//139 270//139 288//139 265//139 287//139 274//139 289//139
f 258//140 262//140 263//140 259//140 272//140 267//140 276//140 291//140
f 259//141 263//141 264//141 260//141 273//141 268//141 277//141
f 261//142 257//142 290//142 275//142 266//142 271//142 260//142 264//142
f 284//137 278//137 268//137 273//137
f 283//137 298//137 279//137 269//137 280//137
f 282//137 295//137 276//137 267//137 281//137
f 279//137 294//137 282//137 281//137 269//137
f 302//143 293//143 282//143 294//143
f 301//143 291//143 276//143 295//143
f 275//137 297//137 283//137 280//137 266//137
f 300//143 296//143 283//143 297//143
f 299//143 292//143 279//143 298//143
f 271//137 284//137 273//137 260//137
f 266//144 280//144 284//144 271//144
f 280//144 269//144 278//144 284//144
f 278//137 285//137 277//137 268//137
f 269//144 281//144 285//144 278//144
f 281//144 267//144 272//144 285//144
f 296//143 299//143 298//143 283//143
f 274//137 287//137 299//137 296//137
f 287//137 265//137 292//137 299//137
f 290//143 300//143 297//143 275//143
f 257//137 289//137 300//137 290//137
f 289//137 274//137 296//137 300//137
f 293//143 301//143 295//143 282//143
f 270//137 286//137 301//137 293//137
f 286//137 258//137 291//137 301//137
f 292//143 302//143 294//143 279//143
f 265//137 288//137 302//137 292//137
f 288//137 270//137 293//137 302//137
