# Blender v2.79 (sub 0) OBJ File: ''
# www.blender.org
mtllib toycar2.mtl
o Cylinder.003_Cylinder
v 1.897252 -1.884025 -0.921440
v 1.897252 -1.884025 -1.188028
v 1.727720 -1.867328 -0.921440
v 1.727720 -1.867328 -1.188028
v 1.564702 -1.817877 -0.921440
v 1.564702 -1.817877 -1.188028
v 1.414464 -1.737573 -0.921440
v 1.414464 -1.737573 -1.188028
v 1.282779 -1.629502 -0.921440
v 1.282779 -1.629502 -1.188028
v 1.174708 -1.497817 -0.921440
v 1.174708 -1.497817 -1.188028
v 1.094404 -1.347579 -0.921440
v 1.094404 -1.347579 -1.188028
v 1.044953 -1.184561 -0.921440
v 1.044953 -1.184561 -1.188028
v 1.028255 -1.015028 -0.921440
v 1.028255 -1.015028 -1.188028
v 1.044953 -0.845495 -0.921440
v 1.044953 -0.845495 -1.188028
v 1.094404 -0.682478 -0.921440
v 1.094404 -0.682478 -1.188028
v 1.174708 -0.532239 -0.921440
v 1.174708 -0.532239 -1.188028
v 1.282779 -0.400555 -0.921440
v 1.282779 -0.400555 -1.188028
v 1.414464 -0.292484 -0.921440
v 1.414464 -0.292484 -1.188028
v 1.564702 -0.212180 -0.921440
v 1.564702 -0.212180 -1.188028
v 1.727720 -0.162729 -0.921440
v 1.727720 -0.162729 -1.188028
v 1.897253 -0.146031 -0.921440
v 1.897253 -0.146031 -1.188028
v 2.066786 -0.162729 -0.921440
v 2.066786 -0.162729 -1.188028
v 2.229804 -0.212180 -0.921440
v 2.229804 -0.212180 -1.188028
v 2.380042 -0.292484 -0.921440
v 2.380042 -0.292484 -1.188028
v 2.511726 -0.400555 -0.921440
v 2.511726 -0.400555 -1.188028
v 2.619797 -0.532240 -0.921440
v 2.619797 -0.532240 -1.188028
v 2.700101 -0.682478 -0.921440
v 2.700101 -0.682478 -1.188028
v 2.749552 -0.845496 -0.921440
v 2.749552 -0.845496 -1.188028
v 2.766249 -1.015029 -0.921440
v 2.766249 -1.015029 -1.188028
v 2.749552 -1.184562 -0.921440
v 2.749552 -1.184562 -1.188028
v 2.700101 -1.347580 -0.921440
v 2.700101 -1.347580 -1.188028
v 2.619797 -1.497818 -0.921440
v 2.619797 -1.497818 -1.188028
v 2.511725 -1.629503 -0.921440
v 2.511725 -1.629503 -1.188028
v 2.380040 -1.737574 -0.921440
v 2.380040 -1.737574 -1.188028
v 2.229802 -1.817877 -0.921440
v 2.229802 -1.817877 -1.188028
v 2.066784 -1.867328 -0.921440
v 2.066784 -1.867328 -1.188028
v -1.898490 -1.884025 -0.921440
v -1.898490 -1.884025 -1.188028
v -2.068023 -1.867328 -0.921440
v -2.068023 -1.867328 -1.188028
v -2.231041 -1.817877 -0.921440
v -2.231041 -1.817877 -1.188028
v -2.381279 -1.737573 -0.921440
v -2.381279 -1.737573 -1.188028
v -2.512964 -1.629502 -0.921440
v -2.512964 -1.629502 -1.188028
v -2.621035 -1.497817 -0.921440
v -2.621035 -1.497817 -1.188028
v -2.701339 -1.347579 -0.921440
v -2.701338 -1.347579 -1.188028
v -2.750790 -1.184561 -0.921440
v -2.750789 -1.184561 -1.188028
v -2.767487 -1.015028 -0.921440
v -2.767487 -1.015028 -1.188028
v -2.750790 -0.845496 -0.921440
v -2.750790 -0.845496 -1.188028
v -2.701339 -0.682478 -0.921440
v -2.701339 -0.682478 -1.188028
v -2.621035 -0.532239 -0.921440
v -2.621035 -0.532239 -1.188028
v -2.512964 -0.400555 -0.921440
v -2.512964 -0.400555 -1.188028
v -2.381279 -0.292484 -0.921440
v -2.381279 -0.292484 -1.188028
v -2.231041 -0.212180 -0.921440
v -2.231041 -0.212180 -1.188028
v -2.068023 -0.162729 -0.921440
v -2.068023 -0.162729 -1.188028
v -1.898490 -0.146031 -0.921440
v -1.898490 -0.146031 -1.188028
v -1.728957 -0.162729 -0.921440
v -1.728957 -0.162729 -1.188028
v -1.565939 -0.212180 -0.921440
v -1.565939 -0.212180 -1.188028
v -1.415701 -0.292484 -0.921440
v -1.415701 -0.292484 -1.188028
v -1.284016 -0.400555 -0.921440
v -1.284016 -0.400555 -1.188028
v -1.175945 -0.532240 -0.921440
v -1.175945 -0.532240 -1.188028
v -1.095642 -0.682478 -0.921440
v -1.095641 -0.682478 -1.188028
v -1.046191 -0.845496 -0.921440
v -1.046191 -0.845496 -1.188028
v -1.029493 -1.015029 -0.921440
v -1.029493 -1.015029 -1.188028
v -1.046191 -1.184562 -0.921440
v -1.046191 -1.184562 -1.188028
v -1.095642 -1.347580 -0.921440
v -1.095642 -1.347580 -1.188028
v -1.175946 -1.497818 -0.921440
v -1.175946 -1.497818 -1.188028
v -1.284018 -1.629503 -0.921440
v -1.284017 -1.629503 -1.188028
v -1.415703 -1.737574 -0.921440
v -1.415702 -1.737574 -1.188028
v -1.565941 -1.817878 -0.921440
v -1.565941 -1.817878 -1.188028
v -1.728959 -1.867328 -0.921440
v -1.728959 -1.867328 -1.188028
v -1.898491 -1.884025 1.157444
v -1.898491 -1.884025 0.890856
v -2.068024 -1.867328 1.157444
v -2.068024 -1.867328 0.890856
v -2.231041 -1.817877 1.157444
v -2.231041 -1.817877 0.890856
v -2.381279 -1.737573 1.157444
v -2.381279 -1.737573 0.890856
v -2.512964 -1.629502 1.157444
v -2.512964 -1.629502 0.890856
v -2.621035 -1.497817 1.157444
v -2.621035 -1.497817 0.890856
v -2.701339 -1.347579 1.157444
v -2.701339 -1.347579 0.890856
v -2.750790 -1.184561 1.157444
v -2.750790 -1.184561 0.890856
v -2.767488 -1.015028 1.157444
v -2.767488 -1.015028 0.890856
v -2.750790 -0.845495 1.157444
v -2.750790 -0.845495 0.890856
v -2.701339 -0.682478 1.157444
v -2.701339 -0.682478 0.890856
v -2.621035 -0.532239 1.157444
v -2.621035 -0.532239 0.890856
v -2.512964 -0.400555 1.157444
v -2.512964 -0.400554 0.890856
v -2.381279 -0.292484 1.157444
v -2.381279 -0.292483 0.890856
v -2.231041 -0.212180 1.157444
v -2.231041 -0.212179 0.890856
v -2.068024 -0.162729 1.157444
v -2.068023 -0.162729 0.890856
v -1.898490 -0.146031 1.157444
v -1.898490 -0.146031 0.890856
v -1.728958 -0.162729 1.157444
v -1.728958 -0.162729 0.890856
v -1.565940 -0.212180 1.157444
v -1.565940 -0.212180 0.890856
v -1.415702 -0.292484 1.157444
v -1.415702 -0.292484 0.890856
v -1.284017 -0.400555 1.157444
v -1.284017 -0.400555 0.890856
v -1.175946 -0.532240 1.157444
v -1.175946 -0.532240 0.890856
v -1.095642 -0.682478 1.157444
v -1.095642 -0.682478 0.890856
v -1.046191 -0.845496 1.157444
v -1.046191 -0.845496 0.890856
v -1.029494 -1.015029 1.157444
v -1.029494 -1.015029 0.890856
v -1.046192 -1.184562 1.157444
v -1.046191 -1.184562 0.890856
v -1.095643 -1.347580 1.157444
v -1.095642 -1.347580 0.890856
v -1.175947 -1.497818 1.157444
v -1.175947 -1.497818 0.890856
v -1.284018 -1.629503 1.157444
v -1.284018 -1.629503 0.890856
v -1.415703 -1.737574 1.157444
v -1.415703 -1.737574 0.890856
v -1.565941 -1.817877 1.157444
v -1.565941 -1.817877 0.890856
v -1.728959 -1.867328 1.157444
v -1.728959 -1.867328 0.890856
v 1.897252 -1.884025 1.157444
v 1.897252 -1.884025 0.890856
v 1.727719 -1.867328 1.157444
v 1.727719 -1.867328 0.890856
v 1.564701 -1.817877 1.157444
v 1.564701 -1.817877 0.890856
v 1.414463 -1.737573 1.157444
v 1.414463 -1.737573 0.890856
v 1.282778 -1.629502 1.157444
v 1.282779 -1.629502 0.890856
v 1.174707 -1.497817 1.157444
v 1.174708 -1.497817 0.890856
v 1.094404 -1.347579 1.157444
v 1.094404 -1.347579 0.890856
v 1.044953 -1.184561 1.157444
v 1.044953 -1.184561 0.890856
v 1.028255 -1.015028 1.157444
v 1.028255 -1.015028 0.890856
v 1.044953 -0.845495 1.157444
v 1.044953 -0.845495 0.890856
v 1.094404 -0.682478 1.157444
v 1.094404 -0.682478 0.890856
v 1.174707 -0.532239 1.157444
v 1.174708 -0.532239 0.890856
v 1.282778 -0.400555 1.157444
v 1.282779 -0.400554 0.890856
v 1.414463 -0.292484 1.157444
v 1.414463 -0.292483 0.890856
v 1.564701 -0.212180 1.157444
v 1.564701 -0.212179 0.890856
v 1.727719 -0.162729 1.157444
v 1.727719 -0.162729 0.890856
v 1.897252 -0.146031 1.157444
v 1.897252 -0.146031 0.890856
v 2.066785 -0.162729 1.157444
v 2.066785 -0.162729 0.890856
v 2.229803 -0.212180 1.157444
v 2.229803 -0.212180 0.890856
v 2.380041 -0.292484 1.157444
v 2.380041 -0.292484 0.890856
v 2.511726 -0.400555 1.157444
v 2.511726 -0.400555 0.890856
v 2.619797 -0.532240 1.157444
v 2.619797 -0.532240 0.890856
v 2.700101 -0.682478 1.157444
v 2.700101 -0.682478 0.890856
v 2.749552 -0.845496 1.157444
v 2.749552 -0.845496 0.890856
v 2.766249 -1.015029 1.157444
v 2.766249 -1.015029 0.890856
v 2.749551 -1.184562 1.157444
v 2.749551 -1.184562 0.890856
v 2.700100 -1.347580 1.157444
v 2.700100 -1.347580 0.890856
v 2.619796 -1.497818 1.157444
v 2.619796 -1.497818 0.890856
v 2.511725 -1.629503 1.157444
v 2.511725 -1.629503 0.890856
v 2.380040 -1.737574 1.157444
v 2.380040 -1.737574 0.890856
v 2.229802 -1.817877 1.157444
v 2.229802 -1.817877 0.890856
v 2.066784 -1.867328 1.157444
v 2.066784 -1.867328 0.890856
v -2.851017 0.394795 -1.000000
v -2.851017 0.394795 1.000000
v 2.851017 0.309710 1.000000
v 2.851016 0.309710 -1.000000
v -2.851017 -1.273881 -0.999999
v -2.851015 -1.273881 1.000001
v 2.851017 -1.273881 1.000000
v 2.851016 -1.273881 -1.000000
v -2.851017 0.394795 0.000000
v -0.000000 1.273881 -1.000000
v -0.000000 1.273881 1.000000
v 2.851016 0.309710 -0.000000
v -0.000000 1.273881 0.000000
v -2.851017 0.394795 0.500000
v 1.425508 0.309710 -1.000000
v 1.425508 0.309710 1.000000
v 2.851016 0.309710 -0.500000
v -2.851017 0.394795 -0.500000
v -1.425508 1.273881 -1.000000
v -1.425508 1.273881 1.000000
v 2.851016 0.309710 0.500000
v 1.425508 0.309710 0.000000
v -1.425508 1.273881 0.000000
v -0.000000 1.273881 -0.500000
v -0.000000 1.273881 0.500000
v -1.425508 1.273881 0.500000
v -1.425508 1.273881 -0.500000
v 1.425508 0.309710 -0.500000
v 1.425508 0.309710 0.500000
v -2.851017 0.394795 0.750000
v -2.851017 0.394795 -0.250000
v -2.851017 0.394795 0.250000
v -2.851017 0.394795 -0.750000
v -2.138262 0.394795 -1.000000
v -2.138263 0.394795 1.000000
v -2.138262 0.394795 0.000000
v -2.138262 0.394795 0.500000
v -1.425508 1.273881 0.250000
v -1.425508 1.273881 0.750000
v -2.138262 0.394795 -0.500000
v -1.425508 1.273881 -0.750000
v -1.425508 1.273881 -0.250000
v -2.138262 0.394795 -0.250000
v -2.138262 0.394795 -0.750000
v -2.138263 0.394795 0.750000
v -2.138262 0.394795 0.250000
vn -0.0980 -0.9952 0.0000
vn -0.2903 -0.9569 0.0000
vn -0.4714 -0.8819 0.0000
vn -0.6344 -0.7730 0.0000
vn -0.7730 -0.6344 0.0000
vn -0.8819 -0.4714 0.0000
vn -0.9569 -0.2903 0.0000
vn -0.9952 -0.0980 0.0000
vn -0.9952 0.0980 0.0000
vn -0.9569 0.2903 0.0000
vn -0.8819 0.4714 0.0000
vn -0.7730 0.6344 0.0000
vn -0.6344 0.7730 0.0000
vn -0.4714 0.8819 0.0000
vn -0.2903 0.9569 0.0000
vn -0.0980 0.9952 0.0000
vn 0.0980 0.9952 0.0000
vn 0.2903 0.9569 0.0000
vn 0.4714 0.8819 0.0000
vn 0.6344 0.7730 0.0000
vn 0.7730 0.6344 0.0000
vn 0.8819 0.4714 0.0000
vn 0.9569 0.2903 0.0000
vn 0.9952 0.0980 0.0000
vn 0.9952 -0.0980 0.0000
vn 0.9569 -0.2903 0.0000
vn 0.8819 -0.4714 0.0000
vn 0.7730 -0.6344 0.0000
vn 0.6344 -0.7730 0.0000
vn 0.4714 -0.8819 0.0000
vn 0.0000 0.0000 -1.0000
vn 0.2903 -0.9569 0.0000
vn 0.0980 -0.9952 0.0000
vn 0.0000 -0.0000 1.0000
vn 0.0000 -1.0000 0.0000
vn -0.0000 1.0000 -0.0000
vn 1.0000 0.0000 -0.0000
vn -1.0000 -0.0000 0.0000
vn 0.7768 -0.6298 0.0000
vn -0.5603 -0.8283 0.0000
usemtl Material
s off
f 1//1 3//1 4//1 2//1
f 3//2 5//2 6//2 4//2
f 5//3 7//3 8//3 6//3
f 7//4 9//4 10//4 8//4
f 9//5 11//5 12//5 10//5
f 11//6 13//6 14//6 12//6
f 13//7 15//7 16//7 14//7
f 15//8 17//8 18//8 16//8
f 17//9 19//9 20//9 18//9
f 19//10 21//10 22//10 20//10
f 21//11 23//11 24//11 22//11
f 23//12 25//12 26//12 24//12
f 25//13 27//13 28//13 26//13
f 27//14 29//14 30//14 28//14
f 29//15 31//15 32//15 30//15
f 31//16 33//16 34//16 32//16
f 33//17 35//17 36//17 34//17
f 35//18 37//18 38//18 36//18
f 37//19 39//19 40//19 38//19
f 39//20 41//20 42//20 40//20
f 41//21 43//21 44//21 42//21
f 43//22 45//22 46//22 44//22
f 45//23 47//23 48//23 46//23
f 47//24 49//24 50//24 48//24
f 49//25 51//25 52//25 50//25
f 51//26 53//26 54//26 52//26
f 53//27 55//27 56//27 54//27
f 55//28 57//28 58//28 56//28
f 57//29 59//29 60//29 58//29
f 59//30 61//30 62//30 60//30
f 4//31 6//31 8//31 10//31 12//31 14//31 16//31 18//31 20//31 22//31 24//31 26//31 28//31 30//31 32//31 34//31 36//31 38//31 40//31 42//31 44//31 46//31 48//31 50//31 52//31 54//31 56//31 58//31 60//31 62//31 64//31 2//31
f 61//32 63//32 64//32 62//32
f 63//33 1//33 2//33 64//33
f 1//34 63//34 61//34 59//34 57//34 55//34 53//34 51//34 49//34 47//34 45//34 43//34 41//34 39//34 37//34 35//34 33//34 31//34 29//34 27//34 25//34 23//34 21//34 19//34 17//34 15//34 13//34 11//34 9//34 7//34 5//34 3//34
f 65//1 67//1 68//1 66//1
f 67//2 69//2 70//2 68//2
f 69//3 71//3 72//3 70//3
f 71//4 73//4 74//4 72//4
f 73//5 75//5 76//5 74//5
f 75//6 77//6 78//6 76//6
f 77//7 79//7 80//7 78//7
f 79//8 81//8 82//8 80//8
f 81//9 83//9 84//9 82//9
f 83//10 85//10 86//10 84//10
f 85//11 87//11 88//11 86//11
f 87//12 89//12 90//12 88//12
f 89//13 91//13 92//13 90//13
f 91//14 93//14 94//14 92//14
f 93//15 95//15 96//15 94//15
f 95//16 97//16 98//16 96//16
f 97//17 99//17 100//17 98//17
f 99//18 101//18 102//18 100//18
f 101//19 103//19 104//19 102//19
f 103//20 105//20 106//20 104//20
f 105//21 107//21 108//21 106//21
f 107//22 109//22 110//22 108//22
f 109//23 111//23 112//23 110//23
f 111//24 113//24 114//24 112//24
f 113//25 115//25 116//25 114//25
f 115//26 117//26 118//26 116//26
f 117//27 119//27 120//27 118//27
f 119//28 121//28 122//28 120//28
f 121//29 123//29 124//29 122//29
f 123//30 125//30 126//30 124//30
f 68//31 70//31 72//31 74//31 76//31 78//31 80//31 82//31 84//31 86//31 88//31 90//31 92//31 94//31 96//31 98//31 100//31 102//31 104//31 106//31 108//31 110//31 112//31 114//31 116//31 118//31 120//31 122//31 124//31 126//31 128//31 66//31
f 125//32 127//32 128//32 126//32
f 127//33 65//33 66//33 128//33
f 65//34 127//34 125//34 123//34 121//34 119//34 117//34 115//34 113//34 111//34 109//34 107//34 105//34 103//34 101//34 99//34 97//34 95//34 93//34 91//34 89//34 87//34 85//34 83//34 81//34 79//34 77//34 75//34 73//34 71//34 69//34 67//34
f 129//1 131//1 132//1 130//1
f 131//2 133//2 134//2 132//2
f 133//3 135//3 136//3 134//3
f 135//4 137//4 138//4 136//4
f 137//5 139//5 140//5 138//5
f 139//6 141//6 142//6 140//6
f 141//7 143//7 144//7 142//7
f 143//8 145//8 146//8 144//8
f 145//9 147//9 148//9 146//9
f 147//10 149//10 150//10 148//10
f 149//11 151//11 152//11 150//11
f 151//12 153//12 154//12 152//12
f 153//13 155//13 156//13 154//13
f 155//14 157//14 158//14 156//14
f 157//15 159//15 160//15 158//15
f 159//16 161//16 162//16 160//16
f 161//17 163//17 164//17 162//17
f 163//18 165//18 166//18 164//18
f 165//19 167//19 168//19 166//19
f 167//20 169//20 170//20 168//20
f 169//21 171//21 172//21 170//21
f 171//22 173//22 174//22 172//22
f 173//23 175//23 176//23 174//23
f 175//24 177//24 178//24 176//24
f 177//25 179//25 180//25 178//25
f 179//26 181//26 182//26 180//26
f 181//27 183//27 184//27 182//27
f 183//28 185//28 186//28 184//28
f 185//29 187//29 188//29 186//29
f 187//30 189//30 190//30 188//30
f 132//31 134//31 136//31 138//31 140//31 142//31 144//31 146//31 148//31 150//31 152//31 154//31 156//31 158//31 160//31 162//31 164//31 166//31 168//31 170//31 172//31 174//31 176//31 178//31 180//31 182//31 184//31 186//31 188//31 190//31 192//31 130//31
f 189//32 191//32 192//32 190//32
f 191//33 129//33 130//33 192//33
f 129//34 191//34 189//34 187//34 185//34 183//34 181//34 179//34 177//34 175//34 173//34 171//34 169//34 167//34 165//34 163//34 161//34 159//34 157//34 155//34 153//34 151//34 149//34 147//34 145//34 143//34 141//34 139//34 137//34 135//34 133//34 131//34
f 193//1 195//1 196//1 194//1
f 195//2 197//2 198//2 196//2
f 197//3 199//3 200//3 198//3
f 199//4 201//4 202//4 200//4
f 201//5 203//5 204//5 202//5
f 203//6 205//6 206//6 204//6
f 205//7 207//7 208//7 206//7
f 207//8 209//8 210//8 208//8
f 209//9 211//9 212//9 210//9
f 211//10 213//10 214//10 212//10
f 213//11 215//11 216//11 214//11
f 215//12 217//12 218//12 216//12
f 217//13 219//13 220//13 218//13
f 219//14 221//14 222//14 220//14
f 221//15 223//15 224//15 222//15
f 223//16 225//16 226//16 224//16
f 225//17 227//17 228//17 226//17
f 227//18 229//18 230//18 228//18
f 229//19 231//19 232//19 230//19
f 231//20 233//20 234//20 232//20
f 233//21 235//21 236//21 234//21
f 235//22 237//22 238//22 236//22
f 237//23 239//23 240//23 238//23
f 239//24 241//24 242//24 240//24
f 241//25 243//25 244//25 242//25
f 243//26 245//26 246//26 244//26
f 245//27 247//27 248//27 246//27
f 247//28 249//28 250//28 248//28
f 249//29 251//29 252//29 250//29
f 251//30 253//30 254//30 252//30
f 196//31 198//31 200//31 202//31 204//31 206//31 208//31 210//31 212//31 214//31 216//31 218//31 220//31 222//31 224//31 226//31 228//31 230//31 232//31 234//31 236//31 238//31 240//31 242//31 244//31 246//31 248//31 250//31 252//31 254//31 256//31 194//31
f 253//32 255//32 256//32 254//32
f 255//33 193//33 194//33 256//33
f 193//34 255//34 253//34 251//34 249//34 247//34 245//34 243//34 241//34 239//34 237//34 235//34 233//34 231//34 229//34 227//34 225//34 223//34 221//34 219//34 217//34 215//34 213//34 211//34 209//34 207//34 205//34 203//34 201//34 199//34 197//34 195//34
f 285//35 277//35 259//35 272//35
f 261//36 262//36 263//36 264//36
f 257//37 289//37 274//37 287//37 265//37 288//37 270//37 286//37 258//37 262//37 261//37
f 258//31 291//31 276//31 267//31 272//31 259//31 263//31 262//31
f 259//38 277//38 268//38 273//38 260//38 264//38 263//38
f 261//34 264//34 260//34 271//34 266//34 275//34 290//34 257//34
f 284//35 273//35 268//35 278//35
f 283//35 280//35 269//35 279//35 298//35
f 282//35 281//35 267//35 276//35 295//35
f 279//35 269//35 281//35 282//35 294//35
f 302//39 294//39 282//39 293//39
f 301//39 295//39 276//39 291//39
f 275//35 266//35 280//35 283//35 297//35
f 300//39 297//39 283//39 296//39
f 299//39 298//39 279//39 292//39
f 271//35 260//35 273//35 284//35
f 266//40 271//40 284//40 280//40
f 280//40 284//40 278//40 269//40
f 278//35 268//35 277//35 285//35
f 269//40 278//40 285//40 281//40
f 281//40 285//40 272//40 267//40
f 296//39 283//39 298//39 299//39
f 274//35 296//35 299//35 287//35
f 287//35 299//35 292//35 265//35
f 290//39 275//39 297//39 300//39
f 257//35 290//35 300//35 289//35
f 289//35 300//35 296//35 274//35
f 293//39 282//39 295//39 301//39
f 270//35 293//35 301//35 286//35
f 286//35 301//35 291//35 258//35
f 292//39 279//39 294//39 302//39
f 265//35 292//35 302//35 288//35
f 288//35 302//35 293//35 270//35
